<svg width="500" height="500" viewBox="0 0 500 500" fill="none" xmlns="http://www.w3.org/2000/svg">
<path d="M332.907 61.5714C358.334 72.6371 381.005 88.4218 400.288 108.493L377.801 130.11C343.965 94.8957 298.444 75.4981 249.625 75.4981C200.822 75.4981 155.317 94.8806 121.489 130.07L99 108.446C118.289 88.3915 140.954 72.6129 166.366 61.5547C192.688 50.1093 220.702 44.3025 249.625 44.3025C278.557 44.3025 306.576 50.1168 332.907 61.5714Z" fill="url(#paint0_linear_27_11)"/>
<path d="M332.907 437.731C358.334 426.665 381.005 410.881 400.288 390.81L377.801 369.193C343.965 404.407 298.444 423.804 249.625 423.804C200.822 423.804 155.317 404.422 121.489 369.232L99 390.857C118.289 410.911 140.954 426.69 166.366 437.748C192.688 449.193 220.702 455 249.625 455C278.557 455 306.576 449.186 332.907 437.731Z" fill="url(#paint1_linear_27_11)"/>
<path d="M357.813 144.923L335.707 166.936C312.737 143.859 282.153 131.149 249.594 131.149C217.265 131.149 186.834 143.706 163.916 166.501L141.919 144.38C170.726 115.73 208.963 99.9606 249.594 99.9606C290.507 99.9606 328.944 115.93 357.813 144.923Z" fill="url(#paint2_linear_27_11)"/>
<path d="M357.813 353.298L335.707 331.285C312.737 354.362 282.153 367.072 249.594 367.072C217.265 367.072 186.834 354.515 163.916 331.72L141.919 353.841C170.726 382.491 208.963 398.261 249.594 398.261C290.507 398.261 328.944 382.291 357.813 353.298Z" fill="url(#paint3_linear_27_11)"/>
<path d="M313.826 310.881L291.774 288.821C280.397 300.2 265.262 306.466 249.171 306.466C233.194 306.466 218.136 300.277 206.783 289.036L184.837 311.203C202.078 328.265 224.917 337.66 249.171 337.66C273.595 337.66 296.556 328.152 313.826 310.881Z" fill="url(#paint4_linear_27_11)"/>
<path d="M313.826 188.624L291.774 210.683C280.397 199.305 265.262 193.039 249.171 193.039C233.194 193.039 218.136 199.228 206.783 210.468L184.837 188.302C202.078 171.239 224.917 161.844 249.171 161.844C273.595 161.844 296.556 171.353 313.826 188.624Z" fill="url(#paint5_linear_27_11)"/>
<path d="M276.919 249.791C276.919 264.969 264.608 277.282 249.428 277.282C234.248 277.282 221.936 264.969 221.936 249.791C221.936 234.611 234.248 222.3 249.428 222.3C264.608 222.3 276.919 234.611 276.919 249.791Z" fill="url(#paint6_linear_27_11)"/>
<path d="M276.977 249.712C276.977 234.534 264.666 222.221 249.486 222.221C234.306 222.221 221.994 234.534 221.994 249.712C221.994 264.892 234.306 277.204 249.486 277.204C264.666 277.204 276.977 264.892 276.977 249.712Z" fill="url(#paint7_linear_27_11)"/>
<path d="M332.907 437.429C358.334 426.363 381.005 410.578 400.288 390.507L377.801 368.89C343.965 404.104 298.444 423.502 249.625 423.502C200.822 423.502 155.317 404.119 121.489 368.93L99 390.554C118.289 410.608 140.954 426.387 166.366 437.445C192.688 448.891 220.702 454.697 249.625 454.697C278.557 454.697 306.576 448.883 332.907 437.429Z" fill="url(#paint8_linear_27_11)"/>
<path d="M332.907 61.2688C358.334 72.3346 381.005 88.1192 400.288 108.19L377.801 129.807C343.965 94.5931 298.444 75.1956 249.625 75.1956C200.822 75.1956 155.317 94.578 121.489 129.768L99 108.143C118.289 88.089 140.954 72.3104 166.366 61.2522C192.688 49.8067 220.702 44 249.625 44C278.557 44 306.576 49.8143 332.907 61.2688Z" fill="url(#paint9_linear_27_11)"/>
<path d="M357.813 144.975L335.707 166.989C312.737 143.911 282.153 131.201 249.594 131.201C217.265 131.201 186.834 143.758 163.916 166.553L141.919 144.432C170.726 115.782 208.963 100.013 249.594 100.013C290.507 100.013 328.944 115.982 357.813 144.975Z" fill="url(#paint10_linear_27_11)"/>
<path d="M357.813 353.35L335.707 331.337C312.737 354.414 282.153 367.124 249.594 367.124C217.265 367.124 186.834 354.567 163.916 331.772L141.919 353.894C170.726 382.543 208.963 398.313 249.594 398.313C290.507 398.313 328.944 382.343 357.813 353.35Z" fill="url(#paint11_linear_27_11)"/>
<path d="M313.826 188.625L291.774 210.684C280.397 199.306 265.262 193.039 249.171 193.039C233.194 193.039 218.136 199.229 206.783 210.469L184.837 188.302C202.078 171.24 224.917 161.845 249.171 161.845C273.595 161.845 296.556 171.354 313.826 188.625Z" fill="url(#paint12_linear_27_11)"/>
<path d="M313.826 310.854L291.774 288.794C280.397 300.173 265.262 306.439 249.171 306.439C233.194 306.439 218.136 300.25 206.783 289.009L184.837 311.176C202.078 328.238 224.917 337.633 249.171 337.633C273.595 337.633 296.556 328.125 313.826 310.854Z" fill="url(#paint13_linear_27_11)"/>
<defs>
<linearGradient id="paint0_linear_27_11" x1="249.644" y1="455" x2="249.644" y2="44" gradientUnits="userSpaceOnUse">
<stop stop-color="#5EB93B"/>
<stop offset="1" stop-color="#F6AF55"/>
</linearGradient>
<linearGradient id="paint1_linear_27_11" x1="249.644" y1="455" x2="249.644" y2="44" gradientUnits="userSpaceOnUse">
<stop stop-color="#5EB93B"/>
<stop offset="1" stop-color="#F6AF55"/>
</linearGradient>
<linearGradient id="paint2_linear_27_11" x1="249.644" y1="455" x2="249.644" y2="44" gradientUnits="userSpaceOnUse">
<stop stop-color="#5EB93B"/>
<stop offset="1" stop-color="#F6AF55"/>
</linearGradient>
<linearGradient id="paint3_linear_27_11" x1="249.644" y1="455" x2="249.644" y2="44" gradientUnits="userSpaceOnUse">
<stop stop-color="#5EB93B"/>
<stop offset="1" stop-color="#F6AF55"/>
</linearGradient>
<linearGradient id="paint4_linear_27_11" x1="249.644" y1="455" x2="249.644" y2="44" gradientUnits="userSpaceOnUse">
<stop stop-color="#5EB93B"/>
<stop offset="1" stop-color="#F6AF55"/>
</linearGradient>
<linearGradient id="paint5_linear_27_11" x1="249.644" y1="455" x2="249.644" y2="44" gradientUnits="userSpaceOnUse">
<stop stop-color="#5EB93B"/>
<stop offset="1" stop-color="#F6AF55"/>
</linearGradient>
<linearGradient id="paint6_linear_27_11" x1="249.644" y1="455" x2="249.644" y2="44" gradientUnits="userSpaceOnUse">
<stop stop-color="#5EB93B"/>
<stop offset="1" stop-color="#F6AF55"/>
</linearGradient>
<linearGradient id="paint7_linear_27_11" x1="249.644" y1="455" x2="249.644" y2="44" gradientUnits="userSpaceOnUse">
<stop stop-color="#5EB93B"/>
<stop offset="1" stop-color="#F6AF55"/>
</linearGradient>
<linearGradient id="paint8_linear_27_11" x1="249.644" y1="455" x2="249.644" y2="44" gradientUnits="userSpaceOnUse">
<stop stop-color="#5EB93B"/>
<stop offset="1" stop-color="#F6AF55"/>
</linearGradient>
<linearGradient id="paint9_linear_27_11" x1="249.644" y1="455" x2="249.644" y2="44" gradientUnits="userSpaceOnUse">
<stop stop-color="#5EB93B"/>
<stop offset="1" stop-color="#F6AF55"/>
</linearGradient>
<linearGradient id="paint10_linear_27_11" x1="249.644" y1="455" x2="249.644" y2="44" gradientUnits="userSpaceOnUse">
<stop stop-color="#5EB93B"/>
<stop offset="1" stop-color="#F6AF55"/>
</linearGradient>
<linearGradient id="paint11_linear_27_11" x1="249.644" y1="455" x2="249.644" y2="44" gradientUnits="userSpaceOnUse">
<stop stop-color="#5EB93B"/>
<stop offset="1" stop-color="#F6AF55"/>
</linearGradient>
<linearGradient id="paint12_linear_27_11" x1="249.644" y1="455" x2="249.644" y2="44" gradientUnits="userSpaceOnUse">
<stop stop-color="#5EB93B"/>
<stop offset="1" stop-color="#F6AF55"/>
</linearGradient>
<linearGradient id="paint13_linear_27_11" x1="249.644" y1="455" x2="249.644" y2="44" gradientUnits="userSpaceOnUse">
<stop stop-color="#5EB93B"/>
<stop offset="1" stop-color="#F6AF55"/>
</linearGradient>
</defs>
</svg>
